<svg xmlns="http://www.w3.org/2000/svg" viewBox="0 0 400 300" width="400" height="300">
  <defs>
    <linearGradient id="so1" x1="0%" y1="0%" x2="100%" y2="100%">
      <stop offset="0%" stop-color="#ebf8ff"/>
      <stop offset="100%" stop-color="#c3dafe"/>
    </linearGradient>
  </defs>
  <rect width="400" height="300" fill="url(#so1)" rx="12"/>
  <!-- Hands holding / trust symbol -->
  <path d="M160,150 Q170,120 200,115 Q230,120 240,150" fill="none" stroke="#2b6cb0" stroke-width="3" stroke-linecap="round" opacity="0.6"/>
  <path d="M140,170 Q160,140 200,130 Q240,140 260,170" fill="none" stroke="#4299e1" stroke-width="2.5" stroke-linecap="round" opacity="0.5"/>
  <!-- People / team circles -->
  <circle cx="160" cy="95" r="15" fill="#2b6cb0" opacity="0.4"/>
  <circle cx="200" cy="85" r="18" fill="#2b6cb0" opacity="0.5"/>
  <circle cx="240" cy="95" r="15" fill="#2b6cb0" opacity="0.4"/>
  <!-- Growth arrows -->
  <line x1="170" y1="200" x2="170" y2="175" stroke="#4299e1" stroke-width="2" opacity="0.4"/>
  <polygon points="170,170 165,178 175,178" fill="#4299e1" opacity="0.4"/>
  <line x1="200" y1="200" x2="200" y2="165" stroke="#2b6cb0" stroke-width="2" opacity="0.5"/>
  <polygon points="200,160 195,168 205,168" fill="#2b6cb0" opacity="0.5"/>
  <line x1="230" y1="200" x2="230" y2="175" stroke="#4299e1" stroke-width="2" opacity="0.4"/>
  <polygon points="230,170 225,178 235,178" fill="#4299e1" opacity="0.4"/>
  <!-- Base line -->
  <line x1="130" y1="200" x2="270" y2="200" stroke="#2b6cb0" stroke-width="2" opacity="0.3"/>
  <!-- Decorative -->
  <circle cx="90" cy="60" r="5" fill="#63b3ed" opacity="0.4"/>
  <circle cx="320" cy="50" r="4" fill="#4299e1" opacity="0.3"/>
  <circle cx="70" cy="240" r="4" fill="#90cdf4" opacity="0.4"/>
  <circle cx="340" cy="250" r="5" fill="#63b3ed" opacity="0.3"/>
  <text x="200" y="265" text-anchor="middle" font-family="Inter,sans-serif" font-size="16" font-weight="600" fill="#2c5282">Ownership Culture</text>
</svg>
